<mxfile host="app.diagrams.net" modified="2021-12-12T10:40:45.319Z" agent="5.0 (Windows NT 10.0; Win64; x64) AppleWebKit/537.36 (KHTML, like Gecko) Chrome/92.0.4515.107 Safari/537.36" etag="3-qJ2SgBjwlrfOOYGgLE" version="15.7.3" type="github">
  <diagram id="Xr7v131PZR1YZp_UmPs2" name="Page-1">
    <mxGraphModel dx="782" dy="-733" grid="1" gridSize="10" guides="1" tooltips="1" connect="1" arrows="1" fold="1" page="1" pageScale="1" pageWidth="827" pageHeight="1169" math="0" shadow="0">
      <root>
        <mxCell id="0" />
        <mxCell id="1" parent="0" />
        <mxCell id="yYVIS0Uz0t4i-bLcMdcE-6" style="edgeStyle=orthogonalEdgeStyle;rounded=0;orthogonalLoop=1;jettySize=auto;html=1;entryX=0;entryY=0.5;entryDx=0;entryDy=0;entryPerimeter=0;exitX=0.5;exitY=1;exitDx=0;exitDy=0;" edge="1" parent="1" source="yYVIS0Uz0t4i-bLcMdcE-1" target="yYVIS0Uz0t4i-bLcMdcE-4">
          <mxGeometry relative="1" as="geometry" />
        </mxCell>
        <mxCell id="yYVIS0Uz0t4i-bLcMdcE-1" value="vpp1" style="rounded=0;whiteSpace=wrap;html=1;fillColor=#ffe6cc;strokeColor=#d79b00;" vertex="1" parent="1">
          <mxGeometry x="200" y="1270" width="120" height="60" as="geometry" />
        </mxCell>
        <mxCell id="yYVIS0Uz0t4i-bLcMdcE-7" style="edgeStyle=orthogonalEdgeStyle;rounded=0;orthogonalLoop=1;jettySize=auto;html=1;entryX=1;entryY=0.5;entryDx=0;entryDy=0;entryPerimeter=0;exitX=0.5;exitY=1;exitDx=0;exitDy=0;" edge="1" parent="1" source="yYVIS0Uz0t4i-bLcMdcE-2" target="yYVIS0Uz0t4i-bLcMdcE-4">
          <mxGeometry relative="1" as="geometry" />
        </mxCell>
        <mxCell id="yYVIS0Uz0t4i-bLcMdcE-2" value="vpp2" style="rounded=0;whiteSpace=wrap;html=1;fillColor=#ffe6cc;strokeColor=#d79b00;" vertex="1" parent="1">
          <mxGeometry x="460" y="1270" width="120" height="60" as="geometry" />
        </mxCell>
        <mxCell id="yYVIS0Uz0t4i-bLcMdcE-3" value="" style="fontColor=#0066CC;verticalAlign=top;verticalLabelPosition=bottom;labelPosition=center;align=center;html=1;outlineConnect=0;fillColor=#CCCCCC;strokeColor=#6881B3;gradientColor=none;gradientDirection=north;strokeWidth=2;shape=mxgraph.networks.terminal;" vertex="1" parent="1">
          <mxGeometry x="350" y="1470" width="80" height="65" as="geometry" />
        </mxCell>
        <mxCell id="yYVIS0Uz0t4i-bLcMdcE-5" value="" style="edgeStyle=orthogonalEdgeStyle;rounded=0;orthogonalLoop=1;jettySize=auto;html=1;" edge="1" parent="1" source="yYVIS0Uz0t4i-bLcMdcE-4" target="yYVIS0Uz0t4i-bLcMdcE-3">
          <mxGeometry relative="1" as="geometry" />
        </mxCell>
        <mxCell id="yYVIS0Uz0t4i-bLcMdcE-4" value="" style="fontColor=#0066CC;verticalAlign=top;verticalLabelPosition=bottom;labelPosition=center;align=center;html=1;outlineConnect=0;fillColor=#CCCCCC;strokeColor=#6881B3;gradientColor=none;gradientDirection=north;strokeWidth=2;shape=mxgraph.networks.switch;" vertex="1" parent="1">
          <mxGeometry x="340" y="1380" width="100" height="30" as="geometry" />
        </mxCell>
        <mxCell id="yYVIS0Uz0t4i-bLcMdcE-8" value="&lt;div&gt;GigabitEthernet2/4/0 (up):&lt;/div&gt;&lt;div&gt;&amp;nbsp; L3 192.168.90.100/24&lt;/div&gt;&lt;div&gt;&lt;br&gt;&lt;/div&gt;" style="text;html=1;strokeColor=#d6b656;fillColor=#fff2cc;align=center;verticalAlign=middle;whiteSpace=wrap;rounded=0;dashed=1;" vertex="1" parent="1">
          <mxGeometry x="200" y="1330" width="150" height="40" as="geometry" />
        </mxCell>
        <mxCell id="yYVIS0Uz0t4i-bLcMdcE-9" value="&lt;div&gt;GigabitEthernet2/4/0 (up):&lt;/div&gt;&lt;div&gt;&amp;nbsp; L3 192.168.90.101/24&lt;/div&gt;&lt;div&gt;&lt;br&gt;&lt;/div&gt;" style="text;html=1;strokeColor=#d6b656;fillColor=#fff2cc;align=center;verticalAlign=middle;whiteSpace=wrap;rounded=0;dashed=1;" vertex="1" parent="1">
          <mxGeometry x="460" y="1330" width="150" height="40" as="geometry" />
        </mxCell>
        <mxCell id="yYVIS0Uz0t4i-bLcMdcE-10" value="&lt;div&gt;ens160:&lt;/div&gt;&lt;div&gt;&amp;nbsp; L3 192.168.90.20/24&lt;/div&gt;&lt;div&gt;gw:192.168.90.50&lt;/div&gt;&lt;div&gt;&lt;br&gt;&lt;/div&gt;" style="text;html=1;strokeColor=#d6b656;fillColor=#fff2cc;align=center;verticalAlign=middle;whiteSpace=wrap;rounded=0;dashed=1;" vertex="1" parent="1">
          <mxGeometry x="305" y="1535" width="170" height="50" as="geometry" />
        </mxCell>
        <mxCell id="yYVIS0Uz0t4i-bLcMdcE-11" value="&lt;div&gt;vrrp ip&lt;/div&gt;&lt;div&gt;&lt;span&gt;&amp;nbsp;192.168.90.50&lt;/span&gt;&lt;/div&gt;&lt;div&gt;&lt;br&gt;&lt;/div&gt;" style="text;html=1;strokeColor=#d6b656;fillColor=#fff2cc;align=center;verticalAlign=middle;whiteSpace=wrap;rounded=0;dashed=1;" vertex="1" parent="1">
          <mxGeometry x="332.5" y="1280" width="115" height="40" as="geometry" />
        </mxCell>
      </root>
    </mxGraphModel>
  </diagram>
</mxfile>
